<svg width="31" height="30" viewBox="0 0 31 30" fill="none" xmlns="http://www.w3.org/2000/svg">
<mask id="path-1-inside-1_61_2279" fill="white">
<path d="M0.5 4.1653C0.5 1.86487 2.36487 0 4.6653 0H14.662C14.883 0 15.0949 0.0877688 15.2511 0.243998L29.0848 14.0777C30.9717 15.9646 30.9717 19.0239 29.0848 20.9108L21.4108 28.5848C19.5239 30.4717 16.4646 30.4717 14.5777 28.5848L0.743998 14.7511C0.587769 14.5949 0.5 14.383 0.5 14.162V4.1653ZM14.317 1.66612H4.6653C3.28504 1.66612 2.16612 2.78504 2.16612 4.1653V13.817L15.7558 27.4067C16.9921 28.6429 18.9965 28.6429 20.2327 27.4067L27.9067 19.7327C29.1429 18.4965 29.1429 16.4921 27.9067 15.2558L14.317 1.66612ZM8.83061 6.66449C7.91043 6.66449 7.16449 7.41043 7.16449 8.33061C7.16449 9.25078 7.91043 9.99673 8.83061 9.99673C9.75078 9.99673 10.4967 9.25078 10.4967 8.33061C10.4967 7.41043 9.75078 6.66449 8.83061 6.66449ZM8.83061 4.99836C10.671 4.99836 12.1629 6.49026 12.1629 8.33061C12.1629 10.171 10.671 11.6629 8.83061 11.6629C6.99026 11.6629 5.49836 10.171 5.49836 8.33061C5.49836 6.49026 6.99026 4.99836 8.83061 4.99836Z"/>
</mask>
<path d="M15.2511 0.243998L18.0795 -2.58443L15.2511 0.243998ZM29.0848 14.0777L31.9132 11.2493L29.0848 14.0777ZM14.5777 28.5848L11.7493 31.4132L14.5777 28.5848ZM0.743998 14.7511L-2.08443 17.5795L0.743998 14.7511ZM14.317 1.66612L17.1454 -1.16231L15.9738 -2.33388H14.317V1.66612ZM2.16612 13.817H-1.83388V15.4738L-0.662305 16.6454L2.16612 13.817ZM4.5 4.1653C4.5 4.07401 4.57401 4 4.6653 4V-4C0.155731 -4 -3.5 -0.344269 -3.5 4.1653H4.5ZM4.6653 4H14.662V-4H4.6653V4ZM14.662 4C13.8221 4 13.0166 3.66634 12.4227 3.07243L18.0795 -2.58443C17.1731 -3.4908 15.9438 -4 14.662 -4V4ZM12.4227 3.07243L26.2564 16.9061L31.9132 11.2493L18.0795 -2.58443L12.4227 3.07243ZM26.2564 16.9061C26.5812 17.231 26.5812 17.7576 26.2564 18.0824L31.9132 23.7393C35.3623 20.2903 35.3623 14.6983 31.9132 11.2493L26.2564 16.9061ZM26.2564 18.0824L18.5824 25.7564L24.2393 31.4132L31.9132 23.7393L26.2564 18.0824ZM18.5824 25.7564C18.2576 26.0812 17.731 26.0812 17.4061 25.7564L11.7493 31.4132C15.1983 34.8623 20.7903 34.8623 24.2393 31.4132L18.5824 25.7564ZM17.4061 25.7564L3.57243 11.9227L-2.08443 17.5795L11.7493 31.4132L17.4061 25.7564ZM3.57243 11.9227C4.16634 12.5166 4.5 13.3221 4.5 14.162H-3.5C-3.5 15.4438 -2.9908 16.6731 -2.08443 17.5795L3.57243 11.9227ZM4.5 14.162V4.1653H-3.5V14.162H4.5ZM14.317 -2.33388H4.6653V5.66612H14.317V-2.33388ZM4.6653 -2.33388C1.0759 -2.33388 -1.83388 0.575905 -1.83388 4.1653H6.16612C6.16612 4.99418 5.49418 5.66612 4.6653 5.66612V-2.33388ZM-1.83388 4.1653V13.817H6.16612V4.1653H-1.83388ZM-0.662305 16.6454L12.9274 30.2351L18.5843 24.5783L4.99455 10.9885L-0.662305 16.6454ZM12.9274 30.2351C15.7258 33.0335 20.2628 33.0335 23.0611 30.2351L17.4043 24.5783C17.7301 24.2524 18.2584 24.2524 18.5843 24.5783L12.9274 30.2351ZM23.0611 30.2351L30.7351 22.5611L25.0783 16.9043L17.4043 24.5783L23.0611 30.2351ZM30.7351 22.5611C33.5335 19.7628 33.5335 15.2258 30.7351 12.4274L25.0783 18.0843C24.7524 17.7584 24.7524 17.2301 25.0783 16.9043L30.7351 22.5611ZM30.7351 12.4274L17.1454 -1.16231L11.4885 4.49455L25.0783 18.0843L30.7351 12.4274ZM8.83061 2.66449C5.7013 2.66449 3.16449 5.2013 3.16449 8.33061H11.1645C11.1645 9.61957 10.1196 10.6645 8.83061 10.6645V2.66449ZM3.16449 8.33061C3.16449 11.4599 5.7013 13.9967 8.83061 13.9967V5.99673C10.1196 5.99673 11.1645 7.04164 11.1645 8.33061H3.16449ZM8.83061 13.9967C11.9599 13.9967 14.4967 11.4599 14.4967 8.33061H6.49673C6.49673 7.04164 7.54164 5.99673 8.83061 5.99673V13.9967ZM14.4967 8.33061C14.4967 5.2013 11.9599 2.66449 8.83061 2.66449V10.6645C7.54164 10.6645 6.49673 9.61957 6.49673 8.33061H14.4967ZM8.83061 8.99836C8.46182 8.99836 8.16285 8.6994 8.16285 8.33061H16.1629C16.1629 4.28112 12.8801 0.998365 8.83061 0.998365V8.99836ZM8.16285 8.33061C8.16285 7.96182 8.46182 7.66285 8.83061 7.66285V15.6629C12.8801 15.6629 16.1629 12.3801 16.1629 8.33061H8.16285ZM8.83061 7.66285C9.1994 7.66285 9.49836 7.96182 9.49836 8.33061H1.49836C1.49836 12.3801 4.78112 15.6629 8.83061 15.6629V7.66285ZM9.49836 8.33061C9.49836 8.6994 9.1994 8.99836 8.83061 8.99836V0.998365C4.78112 0.998365 1.49836 4.28112 1.49836 8.33061H9.49836Z" fill="white" mask="url(#path-1-inside-1_61_2279)"/>
</svg>
