<svg width="41" height="39" viewBox="0 0 41 39" fill="none" xmlns="http://www.w3.org/2000/svg">
<path d="M23.7791 0L21.7726 2.0065L24.7452 4.9791C25.154 5.44357 25.3583 5.98235 25.3583 6.59545C25.3583 7.20855 25.154 7.78449 24.7452 8.19322L18.1498 14.9001L20.0077 16.9066L26.7517 10.1997C27.7364 9.10358 28.2195 7.89596 28.2195 6.59545C28.2195 5.29494 27.7364 4.06874 26.7517 2.9726L23.7791 0ZM16.3848 3.7529L14.3783 5.75941L15.5116 6.79981C15.9203 7.20855 16.1247 7.76591 16.1247 8.45332C16.1247 9.14073 15.9203 9.69809 15.5116 10.1068L14.3783 11.1472L16.3848 13.1537L17.4252 12.0204C18.4099 10.9243 18.9115 9.73525 18.9115 8.45332C18.9115 7.11565 18.4099 5.90804 17.4252 4.79331L16.3848 3.7529ZM35.7996 6.70692C34.5177 6.70692 33.3286 7.20855 32.2325 8.19322L21.7726 18.6716L23.7791 20.5295L34.1461 10.1997C34.6105 9.73525 35.1679 9.49373 35.7996 9.49373C36.4313 9.49373 36.9886 9.73525 37.4531 10.1997L38.5864 11.333L40.5 9.32652L39.4596 8.19322C38.3634 7.20855 37.1372 6.70692 35.7996 6.70692ZM9.78936 12.1691L0.5 38.1793L26.5102 28.8899L9.78936 12.1691ZM32.0838 17.8542C30.7833 17.8542 29.5943 18.3558 28.4796 19.3405L25.5255 22.2945L27.532 24.301L30.4861 21.347C30.9505 20.8825 31.4707 20.641 32.0838 20.641C32.6969 20.641 33.2543 20.8825 33.7188 21.347L36.7285 24.301L38.6793 22.3874L35.7067 19.3405C34.6105 18.3558 33.3843 17.8542 32.0838 17.8542Z" fill="white"/>
</svg>
