<svg width="41" height="32" viewBox="0 0 41 32" fill="none" xmlns="http://www.w3.org/2000/svg">
<path d="M31.0014 11.9986H21.5014V15.4986C21.5014 17.9799 19.4826 19.9986 17.0014 19.9986C14.5201 19.9986 12.5014 17.9799 12.5014 15.4986V7.89863L8.44516 10.3361C7.23891 11.0549 6.50141 12.3611 6.50141 13.7611V16.7174L1.50142 19.6049C0.545175 20.1549 0.213926 21.3799 0.770175 22.3361L5.77017 30.9986C6.32017 31.9548 7.54516 32.2798 8.50141 31.7298L14.9639 27.9986H23.5014C25.7076 27.9986 27.5014 26.2049 27.5014 23.9986H28.5014C29.6076 23.9986 30.5014 23.1049 30.5014 21.9986V17.9986H31.0014C31.8326 17.9986 32.5014 17.3299 32.5014 16.4986V13.4986C32.5014 12.6674 31.8326 11.9986 31.0014 11.9986ZM40.2326 9.66113L35.2326 0.998646C34.6826 0.0423979 33.4576 -0.282602 32.5014 0.267398L26.0389 3.99864H19.6514C18.9014 3.99864 18.1701 4.21114 17.5326 4.60489L15.4389 5.91114C14.8514 6.27364 14.5014 6.91739 14.5014 7.60488V15.4986C14.5014 16.8799 15.6201 17.9986 17.0014 17.9986C18.3826 17.9986 19.5014 16.8799 19.5014 15.4986V9.99863H31.0014C32.9326 9.99863 34.5014 11.5674 34.5014 13.4986V15.2799L39.5014 12.3924C40.4576 11.8361 40.7826 10.6174 40.2326 9.66113Z" fill="white"/>
</svg>
