<svg width="26" height="25" viewBox="0 0 26 25" fill="none" xmlns="http://www.w3.org/2000/svg">
<path d="M13.2827 6.88477C10.1772 6.88477 7.6723 9.38965 7.6723 12.4951C7.6723 15.6006 10.1772 18.1055 13.2827 18.1055C16.3881 18.1055 18.893 15.6006 18.893 12.4951C18.893 9.38965 16.3881 6.88477 13.2827 6.88477ZM13.2827 16.1426C11.2758 16.1426 9.63519 14.5068 9.63519 12.4951C9.63519 10.4834 11.2709 8.84766 13.2827 8.84766C15.2944 8.84766 16.9301 10.4834 16.9301 12.4951C16.9301 14.5068 15.2895 16.1426 13.2827 16.1426ZM20.4311 6.65527C20.4311 7.38281 19.8452 7.96387 19.1225 7.96387C18.395 7.96387 17.8139 7.37793 17.8139 6.65527C17.8139 5.93262 18.3998 5.34668 19.1225 5.34668C19.8452 5.34668 20.4311 5.93262 20.4311 6.65527ZM24.1469 7.9834C24.0639 6.23047 23.6635 4.67773 22.3793 3.39844C21.1 2.11914 19.5473 1.71875 17.7944 1.63086C15.9877 1.52832 10.5727 1.52832 8.76605 1.63086C7.01801 1.71387 5.46527 2.11426 4.18109 3.39355C2.89691 4.67285 2.5014 6.22559 2.41351 7.97852C2.31097 9.78516 2.31097 15.2002 2.41351 17.0068C2.49652 18.7598 2.89691 20.3125 4.18109 21.5918C5.46527 22.8711 7.01312 23.2715 8.76605 23.3594C10.5727 23.4619 15.9877 23.4619 17.7944 23.3594C19.5473 23.2764 21.1 22.876 22.3793 21.5918C23.6586 20.3125 24.059 18.7598 24.1469 17.0068C24.2495 15.2002 24.2495 9.79004 24.1469 7.9834ZM21.8129 18.9453C21.4321 19.9023 20.6948 20.6396 19.7329 21.0254C18.2924 21.5967 14.8745 21.4648 13.2827 21.4648C11.6909 21.4648 8.26801 21.5918 6.83246 21.0254C5.87543 20.6445 5.13812 19.9072 4.75238 18.9453C4.18109 17.5049 4.31293 14.0869 4.31293 12.4951C4.31293 10.9033 4.18597 7.48047 4.75238 6.04492C5.13324 5.08789 5.87054 4.35059 6.83246 3.96484C8.27289 3.39355 11.6909 3.52539 13.2827 3.52539C14.8745 3.52539 18.2973 3.39844 19.7329 3.96484C20.6899 4.3457 21.4272 5.08301 21.8129 6.04492C22.3842 7.48535 22.2524 10.9033 22.2524 12.4951C22.2524 14.0869 22.3842 17.5098 21.8129 18.9453Z" fill="#212121"/>
</svg>
