<?xml version="1.0" encoding="UTF-8" standalone="no"?>
<!-- Created with Inkscape (http://www.inkscape.org/) -->

<svg
   version="1.1"
   id="svg2"
   width="393.41833"
   height="257.53754"
   viewBox="0 0 393.41833 257.53754"
   xmlns="http://www.w3.org/2000/svg"
   xmlns:svg="http://www.w3.org/2000/svg">
  <defs
     id="defs6">
    <clipPath
       clipPathUnits="userSpaceOnUse"
       id="clipPath108">
      <path
         d="M 0,540 H 960 V 0 H 0 Z"
         id="path106" />
    </clipPath>
    <clipPath
       clipPathUnits="userSpaceOnUse"
       id="clipPath124">
      <path
         d="M 16.998,125.126 H 477.02 V 450.393 H 16.998 Z"
         id="path122" />
    </clipPath>
  </defs>
  <g
     id="g76"
     transform="matrix(1.3333333,0,0,-1.3333333,-132.63623,512.62877)">
    <g
       id="g102">
      <g
         id="g104"
         clip-path="url(#clipPath108)">
        <g
           id="g110"
           transform="translate(477.7378,20.8848)">
          <path
             d="m 0,0 v 0 c -0.344,0.436 -0.721,0.258 -1.183,1.237 -1.009,-0.218 -2.029,-1.481 -2.369,-3.112 0.233,-0.396 0.286,-0.08 0.823,-0.148 0.388,-0.049 1.89,0.021 2.803,0.027 C 0.248,-0.996 0.226,-0.289 0,0 m 11.629,-3.394 c -0.425,0.028 -0.879,-0.185 -1.608,-0.298 -0.729,-0.114 -2.625,0.004 -2.625,0.004 0,0 1.4,-0.628 1.47,-1.655 -0.911,0.078 -1.54,0.241 -2.893,1.352 -0.517,0.124 -0.487,0.457 -2.055,0.27 0.166,-0.936 1.142,-8.668 0.86,-9.63 -0.283,-0.962 -3.756,-0.528 -3.381,6.093 -0.369,-0.68 -1.097,-3.234 -1.487,-3.97 -0.39,-0.736 -1.35,-2.017 -1.412,-1.495 -0.062,0.524 -0.542,3.198 1.154,8.969 0.018,0.059 0.033,0.115 0.05,0.173 -0.345,-0.008 -0.747,-0.018 -0.994,-0.021 -0.503,-0.007 -1.859,0.229 -1.974,0.082 l -0.115,-0.146 c -0.115,-0.146 0.12,0.332 -0.288,0.416 -0.408,0.084 -2.023,0.289 -3.2,0.148 -0.643,-0.076 -2.462,0.174 -4.04,0.441 l 0.082,1.488 4.413,-0.709 c 0,0 0.232,0.348 2.174,0.527 0.398,1.108 0.882,1.935 1.668,2.903 0.785,0.97 0.834,1.452 0.834,1.452 0,0 -0.57,2.77 -1.546,4.059 -2.833,3.741 -4.066,7.566 -0.337,11.255 1.067,1.056 3.296,3.258 4.137,4.207 0.842,0.95 1.987,1.351 3.309,1.377 1.324,0.026 3.758,-1.036 3.981,-2.68 0.173,-0.563 1.312,-1.222 1.921,-1.441 0.609,-0.218 1.282,-0.961 1.282,-0.961 l -0.72,0.259 c 0,0 -1.615,0.205 -3.014,0.144 C 6.602,19.085 6.286,19.074 6.094,18.892 5.904,18.71 5.011,17.967 4.477,18.222 4.691,17.77 6.459,16.947 7.02,16.246 7.583,15.543 9.383,12.895 7.425,9.531 5.468,6.168 3.86,4.306 4.323,-0.677 3.936,-0.538 3.607,-0.231 3.454,0.386 c 0.048,-1.081 0.257,-2.594 0.257,-2.594 0,0 1.259,-0.046 2.451,-0.036 0.554,0.004 1.543,-0.228 2.017,0.355 1.026,1.259 2.34,2.257 3.324,1.514 0.533,-0.841 -1.548,-1.248 -2.325,-1.76 l 3.86,0.049 c 0,0 1.672,0.651 3.41,0.09 -0.572,-0.546 -0.928,-0.668 -0.928,-0.668 0,0 1.647,-0.466 2.375,-0.352 -0.515,-0.566 -1.459,-1.103 -2.81,-0.681 -0.418,-0.475 -0.32,-1.073 -3.456,0.303"
             style="fill:#ffffff;fill-opacity:1;fill-rule:evenodd;stroke:none"
             id="path112" />
        </g>
        <g
           id="g114"
           transform="translate(0,541)">
          <path
             d="M 0,0 480,-24.874 960,0 Z"
             style="fill:#cb1517;fill-opacity:1;fill-rule:nonzero;stroke:none"
             id="path116" />
        </g>
      </g>
    </g>
    <g
       id="g118">
      <g
         id="g120"
         clip-path="url(#clipPath124)">
        <g
           id="g126"
           transform="translate(337.1759,340.433)">
          <path
             d="m 0,0 c -0.333,-7.131 -0.667,-14.257 -0.985,-21.397 -0.342,-7.683 -0.694,-15.367 -1.027,-23.049 -0.215,-4.973 -0.428,-10.836 -0.65,-17.592 -0.209,-6.339 -0.447,-13.473 -0.688,-21.389 -0.027,-0.895 -0.719,-1.703 -1.56,-1.824 -8.911,-1.274 -17.821,-2.549 -26.718,-3.829 -0.831,-0.12 -1.514,0.474 -1.55,1.349 -0.577,14.119 -1.156,28.237 -1.733,42.365 -0.575,14.066 -1.149,28.14 -1.723,42.224 -0.02,0.48 0.137,0.926 0.462,1.312 0.326,0.387 0.728,0.607 1.183,0.645 11.175,0.943 22.35,1.851 33.54,2.698 C -0.603,1.578 0.043,0.903 0,0"
             style="fill:#cf1e25;fill-opacity:1;fill-rule:nonzero;stroke:none"
             id="path128" />
        </g>
        <g
           id="g130"
           transform="translate(301.9658,253.3569)">
          <path
             d="m 0,0 c -1.327,11.072 -2.198,13.3 -3.497,24.378 -0.057,0.49 -0.308,0.874 -0.736,1.126 -0.428,0.253 -0.915,0.304 -1.427,0.15 -1.759,-0.526 -4.319,-1.256 -7.675,-2.134 -2.869,-0.75 -9.478,-1.889 -12.841,-2.488 -0.962,-0.171 -1.826,0.411 -1.943,1.311 -0.339,2.619 -0.671,5.239 -1.001,7.861 -0.059,0.467 0.074,0.905 0.391,1.299 0.319,0.395 0.735,0.636 1.235,0.716 4.075,0.655 13.408,1.951 21.017,2.864 0.572,0.069 1.054,0.355 1.385,0.825 0.332,0.469 0.419,0.988 0.252,1.492 -0.481,1.445 -1.095,3.372 -1.812,5.79 -0.555,1.877 -1.047,3.999 -1.541,6.38 -0.095,0.457 -0.355,0.802 -0.773,1.026 -0.418,0.223 -0.878,0.263 -1.365,0.118 -1.543,-0.459 -3.849,-1.058 -6.906,-1.745 -1.876,-0.421 -8.011,-1.323 -11.452,-1.785 -0.959,-0.129 -1.785,0.483 -1.867,1.381 -0.3,3.28 -0.599,6.55 -0.897,9.824 -0.045,0.476 0.108,0.919 0.448,1.306 0.34,0.388 0.774,0.615 1.283,0.669 3.238,0.346 11.657,1.303 18.328,1.807 1.104,0.083 2.711,0.035 4.831,-0.119 0.622,-0.045 1.206,0.199 1.626,0.683 0.418,0.482 0.552,1.067 0.373,1.625 -1.423,4.454 -3.162,17.745 -4.404,22.266 -0.211,0.766 -0.955,1.225 -1.808,1.116 -8.559,-1.099 -20.592,-2.718 -29.132,-3.815 -8.451,-1.084 -11.293,-1.32 -19.746,-2.396 -0.958,-0.122 -1.709,-0.935 -1.701,-1.842 0.065,-7.336 0.116,-14.683 0.201,-22.016 0.09,-7.873 0.137,-15.783 0.236,-23.667 0.068,-5.411 0.101,-11.9 0.06,-19.481 -0.038,-7.095 -0.136,-15.168 -0.275,-24.189 -0.009,-0.487 0.178,-0.893 0.55,-1.198 0.371,-0.305 0.825,-0.423 1.338,-0.35 9.944,1.414 14.276,2.051 24.209,3.643 9.972,1.598 23.448,3.837 33.433,5.567 0.495,0.086 0.903,0.327 1.216,0.717 C -0.075,-0.893 0.056,-0.461 0,0"
             style="fill:#cf1e25;fill-opacity:1;fill-rule:nonzero;stroke:none"
             id="path132" />
        </g>
        <g
           id="g134"
           transform="translate(239.7726,301.4894)">
          <path
             d="m 0,0 c 0,-7.541 -2.101,-14.496 -6.348,-20.847 -3.315,-4.957 -7.381,-8.879 -12.195,-11.777 -0.483,-0.291 -0.806,-0.709 -0.944,-1.221 -0.139,-0.514 -0.054,-0.98 0.247,-1.365 1.525,-1.952 4.038,-4.953 7.638,-8.899 1.958,-2.144 4.927,-4.69 8.764,-7.787 0.444,-0.355 0.622,-0.883 0.505,-1.479 -0.12,-0.597 -0.503,-1.094 -1.078,-1.398 -8.069,-4.268 -14.766,-7.81 -23.074,-11.702 -0.37,-0.172 -0.739,-0.359 -1.109,-0.552 -1.469,1.741 -3.851,4.754 -6.992,9.123 -1.995,2.775 -4.676,7.68 -8.338,14.493 -0.039,-0.006 -0.079,-0.012 -0.119,-0.016 -0.183,-6.598 -0.367,-13.182 -0.535,-19.76 -0.023,-0.93 -0.822,-1.778 -1.801,-1.91 -10.396,-1.407 -14.602,-2.162 -24.999,-3.609 -0.97,-0.135 -1.773,0.477 -1.82,1.391 -1.453,28.017 2.287,65.468 0.863,87.92 -0.052,0.817 0.502,1.616 1.343,1.938 19.79,7.57 38.275,14.508 57.038,3.608 C -4.31,21.131 0,12.359 0,0 m -27.978,-1.952 c 0,3.893 -1.666,6.437 -4.976,7.619 -2.024,0.723 -4.487,0.865 -7.392,0.456 -0.979,-0.139 -1.774,-0.992 -1.79,-1.924 -0.099,-5.819 -0.199,-11.631 -0.298,-17.442 -0.008,-0.516 0.196,-0.935 0.599,-1.226 0.403,-0.29 0.89,-0.372 1.428,-0.239 2.597,0.642 4.956,1.724 7.095,3.221 3.556,2.486 5.334,5.663 5.334,9.535"
             style="fill:#cf1e25;fill-opacity:1;fill-rule:nonzero;stroke:none"
             id="path136" />
        </g>
        <g
           id="g138"
           transform="translate(189.4731,203.7415)">
          <path
             d="m 0,0 c 0.443,0.061 0.86,0.031 1.252,-0.093 0.393,-0.124 0.731,-0.32 1.018,-0.588 0.286,-0.268 0.509,-0.597 0.669,-0.985 0.16,-0.388 0.235,-0.815 0.223,-1.281 L 3.039,-8.065 C 3.027,-8.53 2.932,-8.981 2.752,-9.416 2.572,-9.851 2.332,-10.244 2.03,-10.593 1.73,-10.942 1.379,-11.234 0.978,-11.467 0.577,-11.701 0.155,-11.848 -0.287,-11.91 l -3.662,-0.507 c -0.174,-0.024 -0.325,0.023 -0.451,0.14 -0.125,0.118 -0.186,0.268 -0.181,0.453 l 0.254,10.528 c 0.005,0.196 0.073,0.37 0.205,0.523 0.133,0.153 0.286,0.241 0.461,0.266 z m 1.088,-3.377 c 0.01,0.38 -0.106,0.679 -0.344,0.897 -0.242,0.22 -0.535,0.306 -0.885,0.258 L -1.755,-2.445 C -1.899,-2.465 -2.019,-2.533 -2.12,-2.65 -2.22,-2.766 -2.271,-2.9 -2.275,-3.052 L -2.43,-9.454 c -0.003,-0.151 0.042,-0.274 0.138,-0.369 0.095,-0.094 0.212,-0.133 0.356,-0.113 l 1.614,0.224 c 0.35,0.048 0.65,0.22 0.903,0.514 0.251,0.291 0.382,0.622 0.391,0.99 z m 8.027,4.769 c 0.536,0.075 1.036,0.038 1.499,-0.108 0.463,-0.146 0.866,-0.38 1.207,-0.699 0.341,-0.321 0.606,-0.712 0.795,-1.178 0.189,-0.465 0.277,-0.979 0.264,-1.542 l -0.099,-4.062 c -0.013,-0.563 -0.127,-1.105 -0.339,-1.625 -0.213,-0.522 -0.499,-0.99 -0.858,-1.407 -0.359,-0.417 -0.775,-0.763 -1.249,-1.039 -0.473,-0.277 -0.978,-0.452 -1.514,-0.526 -0.535,-0.074 -1.035,-0.038 -1.498,0.108 -0.464,0.147 -0.866,0.38 -1.207,0.7 -0.341,0.32 -0.607,0.712 -0.796,1.177 -0.189,0.465 -0.276,0.979 -0.262,1.542 l 0.097,4.062 c 0.014,0.564 0.127,1.106 0.34,1.626 0.213,0.521 0.499,0.989 0.858,1.406 0.359,0.417 0.775,0.764 1.249,1.04 0.473,0.276 0.978,0.451 1.513,0.525 m 1.618,-3.789 c 0.006,0.248 -0.035,0.478 -0.122,0.687 -0.087,0.21 -0.206,0.385 -0.357,0.523 -0.151,0.141 -0.327,0.246 -0.531,0.315 C 9.519,-0.803 9.299,-0.785 9.062,-0.817 8.825,-0.851 8.603,-0.929 8.395,-1.056 8.186,-1.182 8.003,-1.337 7.844,-1.521 7.686,-1.702 7.558,-1.911 7.46,-2.146 7.362,-2.381 7.309,-2.623 7.303,-2.872 L 7.204,-7.004 c -0.006,-0.249 0.034,-0.479 0.122,-0.688 0.087,-0.209 0.206,-0.382 0.357,-0.523 0.15,-0.141 0.327,-0.246 0.531,-0.315 0.204,-0.068 0.424,-0.087 0.661,-0.054 0.236,0.033 0.459,0.112 0.668,0.239 0.208,0.125 0.391,0.28 0.549,0.464 0.159,0.184 0.287,0.391 0.385,0.626 0.098,0.234 0.15,0.477 0.156,0.726 z m 13.508,-2.44 c 0.237,0.044 0.415,-0.01 0.535,-0.161 0.12,-0.15 0.157,-0.298 0.113,-0.445 -0.092,-0.369 -0.212,-0.71 -0.364,-1.022 -0.345,-0.685 -0.823,-1.269 -1.436,-1.754 -0.612,-0.484 -1.289,-0.777 -2.03,-0.88 -0.535,-0.074 -1.035,-0.038 -1.498,0.108 -0.464,0.146 -0.867,0.379 -1.207,0.699 -0.342,0.32 -0.607,0.713 -0.796,1.178 -0.189,0.465 -0.277,0.979 -0.263,1.542 l 0.098,4.062 c 0.014,0.564 0.127,1.106 0.34,1.626 0.212,0.521 0.498,0.989 0.857,1.406 0.359,0.417 0.775,0.764 1.25,1.04 0.473,0.276 0.978,0.451 1.513,0.525 0.742,0.103 1.409,-0.002 2.002,-0.314 0.593,-0.311 1.046,-0.764 1.36,-1.358 0.138,-0.272 0.243,-0.587 0.316,-0.944 0.048,-0.144 0.006,-0.304 -0.127,-0.479 -0.132,-0.175 -0.317,-0.273 -0.554,-0.295 l -0.957,-0.133 c -0.247,-0.034 -0.405,0.052 -0.471,0.256 0,0 -0.012,0.031 -0.037,0.089 -0.024,0.061 -0.053,0.13 -0.087,0.207 C 22.764,0.19 22.72,0.264 22.665,0.338 22.61,0.408 22.552,0.468 22.492,0.513 22.331,0.65 22.152,0.755 21.953,0.825 21.754,0.892 21.537,0.91 21.3,0.877 21.063,0.844 20.841,0.765 20.632,0.639 20.424,0.513 20.24,0.358 20.082,0.174 19.923,-0.007 19.796,-0.216 19.697,-0.451 19.599,-0.686 19.547,-0.928 19.541,-1.177 L 19.442,-5.31 c -0.006,-0.249 0.034,-0.478 0.122,-0.687 0.087,-0.209 0.206,-0.382 0.357,-0.523 0.15,-0.141 0.327,-0.246 0.531,-0.315 0.203,-0.069 0.424,-0.087 0.66,-0.054 0.237,0.033 0.457,0.112 0.66,0.237 0.204,0.126 0.389,0.281 0.558,0.466 0.063,0.051 0.124,0.125 0.182,0.22 0.06,0.094 0.107,0.184 0.146,0.271 0.038,0.086 0.071,0.163 0.098,0.232 0.027,0.068 0.041,0.102 0.041,0.102 0.077,0.227 0.239,0.358 0.486,0.392 z m 7.21,0.254 -2.054,-0.284 C 29.221,-4.892 29.068,-4.981 28.936,-5.134 28.804,-5.287 28.735,-5.455 28.731,-5.64 L 28.693,-7.216 C 28.688,-7.4 28.62,-7.569 28.488,-7.722 28.356,-7.875 28.203,-7.963 28.028,-7.988 l -0.803,-0.111 c -0.176,-0.025 -0.326,0.022 -0.451,0.14 -0.126,0.117 -0.187,0.268 -0.182,0.452 l 0.254,10.546 c 0.005,0.183 0.073,0.352 0.205,0.505 0.132,0.154 0.286,0.242 0.461,0.267 l 0.803,0.111 c 0.175,0.024 0.325,-0.023 0.451,-0.14 0.126,-0.118 0.186,-0.269 0.181,-0.453 l -0.13,-5.394 c -0.005,-0.184 0.056,-0.335 0.182,-0.453 0.125,-0.117 0.275,-0.164 0.451,-0.14 l 2.054,0.284 c 0.176,0.025 0.329,0.113 0.461,0.267 0.131,0.154 0.2,0.322 0.205,0.506 l 0.13,5.394 c 0.004,0.184 0.072,0.353 0.205,0.506 0.131,0.153 0.285,0.243 0.46,0.266 l 0.803,0.112 c 0.175,0.024 0.326,-0.022 0.451,-0.14 0.125,-0.118 0.186,-0.268 0.182,-0.453 L 34.146,-6.46 C 34.142,-6.644 34.073,-6.814 33.941,-6.967 33.809,-7.12 33.655,-7.208 33.48,-7.232 l -0.803,-0.112 c -0.175,-0.024 -0.325,0.023 -0.451,0.14 -0.125,0.117 -0.185,0.268 -0.181,0.453 l 0.038,1.575 c 0.005,0.184 -0.056,0.336 -0.182,0.453 -0.125,0.117 -0.276,0.164 -0.45,0.14 m 7.35,9.261 -0.179,-7.409 c -0.006,-0.25 0.032,-0.476 0.114,-0.681 0.083,-0.204 0.202,-0.377 0.352,-0.518 0.151,-0.141 0.328,-0.244 0.534,-0.306 0.204,-0.064 0.427,-0.079 0.664,-0.046 0.237,0.033 0.462,0.109 0.67,0.23 0.211,0.122 0.394,0.274 0.552,0.458 0.159,0.183 0.287,0.39 0.38,0.619 0.093,0.229 0.142,0.467 0.148,0.717 l 0.179,7.408 c 0.005,0.196 0.073,0.37 0.202,0.522 0.132,0.153 0.291,0.243 0.474,0.268 l 0.798,0.111 c 0.172,0.024 0.323,-0.023 0.448,-0.14 0.123,-0.118 0.183,-0.275 0.179,-0.469 l -0.178,-7.361 c -0.013,-0.552 -0.126,-1.086 -0.338,-1.602 -0.213,-0.515 -0.494,-0.977 -0.848,-1.388 -0.353,-0.41 -0.764,-0.754 -1.23,-1.028 -0.469,-0.276 -0.963,-0.45 -1.489,-0.522 -0.525,-0.073 -1.014,-0.036 -1.473,0.111 -0.455,0.147 -0.852,0.379 -1.189,0.694 -0.336,0.315 -0.596,0.702 -0.785,1.162 -0.189,0.46 -0.277,0.966 -0.264,1.518 L 36.7,4.387 c 0.005,0.195 0.073,0.369 0.203,0.521 0.131,0.154 0.29,0.243 0.473,0.269 l 0.798,0.11 c 0.172,0.024 0.323,-0.023 0.448,-0.14 0.123,-0.118 0.184,-0.274 0.179,-0.469 m 15.36,-8.464 c 0.017,-0.116 0.004,-0.226 -0.039,-0.329 -0.033,-0.091 -0.097,-0.173 -0.191,-0.245 -0.094,-0.072 -0.239,-0.122 -0.435,-0.15 l -0.973,-0.134 c -0.134,-0.019 -0.254,-0.011 -0.361,0.023 -0.107,0.033 -0.185,0.107 -0.233,0.219 l -0.889,2.079 c -0.069,0.12 -0.17,0.208 -0.302,0.266 -0.132,0.057 -0.275,0.075 -0.43,0.053 L 49.103,-2.171 C 48.949,-2.192 48.816,-2.267 48.705,-2.395 48.594,-2.524 48.537,-2.67 48.533,-2.833 l -0.041,-1.689 c -0.004,-0.184 -0.073,-0.353 -0.204,-0.506 -0.132,-0.153 -0.291,-0.243 -0.477,-0.268 l -0.787,-0.11 c -0.175,-0.024 -0.326,0.022 -0.451,0.14 -0.126,0.118 -0.186,0.268 -0.182,0.453 l 0.255,10.545 c 0.004,0.183 0.072,0.353 0.205,0.506 0.131,0.153 0.285,0.242 0.46,0.266 L 50.246,6.91 C 50.834,6.992 51.381,6.952 51.891,6.79 52.4,6.629 52.843,6.371 53.219,6.019 53.596,5.666 53.888,5.234 54.096,4.723 54.305,4.212 54.402,3.648 54.386,3.031 54.372,2.424 54.252,1.844 54.028,1.289 53.805,0.734 53.508,0.226 53.138,-0.236 53.074,-0.309 53.021,-0.395 52.978,-0.492 52.934,-0.59 52.911,-0.688 52.909,-0.785 52.906,-0.893 52.93,-0.998 52.978,-1.099 Z m -3.997,4.094 c 0.288,0.041 0.565,0.136 0.831,0.285 0.265,0.151 0.495,0.342 0.69,0.574 0.196,0.232 0.353,0.491 0.474,0.778 0.119,0.287 0.183,0.587 0.191,0.901 0.007,0.303 -0.043,0.585 -0.149,0.846 -0.107,0.26 -0.253,0.477 -0.439,0.651 -0.185,0.175 -0.408,0.303 -0.668,0.386 -0.26,0.083 -0.534,0.103 -0.822,0.064 L 50.271,4.776 49.36,4.651 C 49.186,4.626 49.031,4.537 48.9,4.384 48.768,4.231 48.699,4.057 48.694,3.862 L 48.621,0.791 c -0.005,-0.195 0.055,-0.351 0.18,-0.469 0.126,-0.118 0.276,-0.164 0.452,-0.14 z m 13.696,-2.75 c 0.017,-0.117 0.004,-0.226 -0.039,-0.329 -0.033,-0.091 -0.096,-0.174 -0.191,-0.246 -0.094,-0.072 -0.239,-0.122 -0.434,-0.149 l -0.974,-0.135 c -0.133,-0.018 -0.254,-0.011 -0.361,0.023 -0.107,0.034 -0.185,0.107 -0.233,0.219 l -0.89,2.079 c -0.068,0.12 -0.168,0.208 -0.301,0.266 -0.132,0.057 -0.275,0.075 -0.43,0.054 L 58.802,-0.827 C 58.648,-0.849 58.516,-0.923 58.405,-1.052 58.294,-1.181 58.236,-1.327 58.233,-1.49 l -0.041,-1.688 c -0.005,-0.185 -0.073,-0.353 -0.205,-0.506 -0.132,-0.154 -0.29,-0.244 -0.476,-0.269 l -0.788,-0.11 c -0.175,-0.024 -0.325,0.023 -0.451,0.14 -0.125,0.118 -0.186,0.269 -0.181,0.453 l 0.254,10.545 c 0.005,0.184 0.073,0.353 0.205,0.506 0.132,0.153 0.285,0.242 0.46,0.266 l 2.936,0.407 C 60.532,8.335 61.08,8.295 61.59,8.133 62.099,7.972 62.542,7.715 62.919,7.362 63.295,7.009 63.587,6.577 63.796,6.067 64.004,5.556 64.101,4.991 64.086,4.374 64.071,3.768 63.952,3.187 63.728,2.632 63.504,2.078 63.207,1.57 62.837,1.108 62.774,1.035 62.72,0.949 62.677,0.851 62.633,0.753 62.61,0.656 62.608,0.558 62.605,0.45 62.628,0.345 62.677,0.244 Z m -3.996,4.093 c 0.288,0.041 0.565,0.136 0.83,0.285 0.265,0.151 0.495,0.342 0.691,0.574 0.195,0.232 0.353,0.491 0.473,0.778 0.12,0.287 0.184,0.587 0.191,0.901 0.007,0.304 -0.042,0.586 -0.149,0.846 -0.106,0.26 -0.253,0.478 -0.439,0.652 -0.185,0.174 -0.408,0.302 -0.667,0.385 -0.26,0.083 -0.535,0.104 -0.823,0.064 V 6.12 L 59.059,5.994 C 58.885,5.97 58.731,5.881 58.599,5.727 58.467,5.574 58.399,5.4 58.394,5.205 L 58.319,2.134 C 58.315,1.939 58.376,1.783 58.501,1.665 58.627,1.548 58.776,1.501 58.952,1.526 Z m 13.788,-2.705 c 0,-0.021 0.002,-0.043 0.007,-0.063 0.004,-0.022 0.006,-0.043 0.005,-0.064 -0.002,-0.13 -0.052,-0.251 -0.147,-0.361 -0.095,-0.11 -0.209,-0.175 -0.343,-0.193 l -1.05,-0.146 c -0.114,-0.016 -0.226,-0.004 -0.338,0.035 -0.112,0.037 -0.182,0.114 -0.21,0.229 l -0.223,0.942 c -0.02,0.04 -0.04,0.07 -0.06,0.088 -0.04,0.037 -0.107,0.061 -0.199,0.07 L 68.098,-0.933 C 67.994,-0.968 67.927,-1.01 67.894,-1.058 67.852,-1.107 67.831,-1.142 67.83,-1.164 l -0.27,-1.009 c -0.035,-0.123 -0.108,-0.22 -0.223,-0.29 -0.115,-0.07 -0.229,-0.112 -0.342,-0.128 l -1.066,-0.148 c -0.123,-0.017 -0.231,0.017 -0.321,0.101 -0.09,0.085 -0.134,0.192 -0.131,0.323 0.002,0.065 0.009,0.109 0.019,0.132 L 68.463,9.11 c 0.055,0.126 0.137,0.229 0.246,0.309 0.11,0.08 0.226,0.129 0.35,0.145 l 1.576,0.218 C 70.892,9.819 71.08,9.72 71.197,9.488 Z m -2.981,2.745 c 0.102,0.014 0.155,0.075 0.158,0.184 l 0.001,0.033 -0.825,3.48 C 69.956,5.5 69.871,5.548 69.747,5.531 69.623,5.513 69.534,5.442 69.48,5.316 L 68.482,1.582 68.481,1.55 C 68.478,1.441 68.523,1.394 68.616,1.406 Z M 81.813,0.303 C 81.277,-0.203 80.673,-0.578 80,-0.822 c -0.601,-0.224 -1.199,-0.315 -1.793,-0.273 -0.594,0.042 -1.134,0.207 -1.62,0.496 -0.445,0.263 -0.802,0.602 -1.069,1.019 -0.069,0.108 -0.13,0.221 -0.184,0.338 -0.054,0.117 -0.105,0.236 -0.153,0.359 -0.019,0.063 -0.037,0.124 -0.057,0.187 -0.019,0.062 -0.038,0.124 -0.057,0.187 -0.01,0.041 -0.014,0.095 -0.012,0.16 0.002,0.076 0.014,0.131 0.035,0.166 0.054,0.127 0.134,0.229 0.238,0.309 0.105,0.079 0.214,0.132 0.328,0.159 l 0.989,0.153 c 0.082,0.01 0.167,0.018 0.254,0.019 0.088,0.001 0.172,-0.015 0.253,-0.046 0.071,-0.023 0.127,-0.064 0.167,-0.123 0.03,-0.028 0.054,-0.079 0.073,-0.152 0.048,-0.133 0.107,-0.25 0.176,-0.348 0.109,-0.168 0.255,-0.307 0.437,-0.417 0.182,-0.11 0.38,-0.182 0.595,-0.218 0.205,-0.025 0.42,-0.016 0.647,0.026 0.227,0.042 0.445,0.12 0.653,0.236 0.135,0.083 0.263,0.179 0.384,0.288 0.12,0.108 0.224,0.227 0.308,0.358 0.139,0.225 0.212,0.461 0.218,0.71 0.006,0.293 -0.074,0.541 -0.244,0.744 -0.17,0.203 -0.388,0.33 -0.653,0.379 -0.256,0.04 -0.519,0.05 -0.792,0.028 -0.272,-0.021 -0.639,-0.021 -1.101,0.002 -0.4,0.009 -0.773,0.093 -1.118,0.249 -0.345,0.158 -0.643,0.368 -0.893,0.63 -0.251,0.262 -0.443,0.576 -0.577,0.94 -0.135,0.365 -0.198,0.758 -0.188,1.181 0.021,0.456 0.108,0.865 0.261,1.226 0.152,0.361 0.329,0.68 0.531,0.956 0.021,0.025 0.053,0.072 0.096,0.143 0.402,0.498 0.863,0.902 1.384,1.212 0.448,0.289 0.93,0.485 1.446,0.589 0.082,0.022 0.163,0.041 0.24,0.057 0.077,0.016 0.152,0.029 0.224,0.039 0.083,0.012 0.165,0.018 0.247,0.018 0.463,0.031 0.913,-0.014 1.351,-0.136 0.143,-0.046 0.283,-0.096 0.42,-0.153 0.137,-0.056 0.272,-0.124 0.403,-0.203 0.445,-0.262 0.802,-0.607 1.068,-1.034 C 83.064,9.41 83.176,9.183 83.253,8.956 83.272,8.893 83.291,8.831 83.31,8.769 83.329,8.708 83.348,8.645 83.367,8.583 83.376,8.541 83.38,8.487 83.379,8.422 83.378,8.379 83.366,8.324 83.344,8.256 83.289,8.13 83.21,8.027 83.106,7.948 83.001,7.868 82.887,7.815 82.763,7.786 L 81.79,7.636 C 81.697,7.622 81.609,7.614 81.527,7.608 81.445,7.601 81.363,7.62 81.282,7.662 81.21,7.685 81.155,7.726 81.115,7.785 81.086,7.814 81.061,7.865 81.042,7.937 80.995,8.071 80.936,8.186 80.866,8.285 80.618,8.64 80.274,8.851 79.834,8.92 79.63,8.945 79.414,8.937 79.187,8.895 78.96,8.852 78.743,8.774 78.535,8.659 78.399,8.575 78.271,8.479 78.15,8.371 78.03,8.262 77.926,8.142 77.842,8.012 77.703,7.809 77.631,7.572 77.625,7.302 77.617,6.999 77.695,6.748 77.86,6.549 78.025,6.35 78.24,6.226 78.506,6.177 78.802,6.132 79.102,6.116 79.405,6.132 79.708,6.147 80.009,6.153 80.307,6.151 80.327,6.154 80.345,6.154 80.36,6.15 80.375,6.147 80.393,6.147 80.414,6.149 80.814,6.14 81.187,6.057 81.532,5.9 81.877,5.742 82.175,5.532 82.425,5.271 82.675,5.008 82.868,4.695 83.003,4.33 83.138,3.966 83.2,3.566 83.19,3.133 83.187,2.615 83.057,2.117 82.799,1.638 82.542,1.159 82.213,0.715 81.813,0.303 M 92.789,4.836 C 92.776,4.283 92.666,3.749 92.459,3.235 92.251,2.721 91.973,2.256 91.625,1.84 91.456,1.644 91.368,1.411 91.361,1.14 91.357,0.988 91.385,0.852 91.444,0.731 c 0.097,-0.224 0.189,-0.433 0.277,-0.627 0.078,-0.172 0.151,-0.337 0.219,-0.495 0.068,-0.158 0.117,-0.273 0.146,-0.344 -0.001,-0.022 0.001,-0.04 0.006,-0.056 0.005,-0.016 0.007,-0.034 0.006,-0.056 -0.025,-0.187 -0.1,-0.351 -0.227,-0.493 -0.127,-0.142 -0.278,-0.225 -0.452,-0.249 L 90.6,-1.703 c -0.134,-0.018 -0.254,0.006 -0.361,0.072 -0.106,0.067 -0.183,0.156 -0.231,0.268 l -0.497,1.129 C 89.355,0.101 89.072,0.251 88.66,0.215 88.145,0.166 87.667,0.221 87.224,0.38 86.782,0.54 86.398,0.782 86.072,1.104 85.746,1.426 85.494,1.814 85.315,2.27 85.136,2.726 85.053,3.224 85.066,3.766 l 0.098,4.062 c 0.014,0.563 0.127,1.105 0.339,1.626 0.213,0.52 0.499,0.989 0.858,1.405 0.359,0.418 0.776,0.764 1.249,1.04 0.474,0.276 0.979,0.452 1.514,0.525 0.536,0.075 1.035,0.039 1.499,-0.108 0.463,-0.146 0.865,-0.379 1.207,-0.699 0.341,-0.319 0.606,-0.712 0.795,-1.177 0.189,-0.465 0.277,-0.979 0.263,-1.543 z m -2.047,3.813 c 0.006,0.249 -0.035,0.478 -0.122,0.687 -0.087,0.21 -0.206,0.385 -0.357,0.526 -0.15,0.141 -0.327,0.243 -0.531,0.307 -0.204,0.064 -0.425,0.078 -0.661,0.046 -0.238,-0.033 -0.459,-0.11 -0.668,-0.23 C 88.195,9.864 88.012,9.712 87.853,9.528 87.695,9.345 87.567,9.135 87.468,8.9 87.37,8.665 87.319,8.423 87.313,8.174 l -0.101,-4.16 c -0.006,-0.249 0.035,-0.475 0.122,-0.679 0.088,-0.204 0.207,-0.376 0.357,-0.518 0.151,-0.141 0.328,-0.246 0.532,-0.314 0.203,-0.069 0.423,-0.087 0.66,-0.055 0.237,0.033 0.46,0.113 0.668,0.238 0.209,0.126 0.392,0.282 0.55,0.466 0.159,0.183 0.287,0.39 0.385,0.619 0.097,0.23 0.149,0.47 0.156,0.718 z m 6.332,4.099 -0.178,-7.409 C 96.889,5.09 96.927,4.863 97.01,4.659 97.092,4.454 97.211,4.282 97.362,4.141 97.513,4 97.689,3.898 97.896,3.834 98.1,3.771 98.322,3.755 98.559,3.789 c 0.237,0.032 0.462,0.11 0.671,0.23 0.21,0.121 0.394,0.273 0.552,0.457 0.158,0.184 0.286,0.39 0.38,0.619 0.092,0.229 0.141,0.468 0.147,0.718 l 0.179,7.408 c 0.005,0.195 0.073,0.369 0.203,0.522 0.132,0.153 0.291,0.243 0.473,0.268 l 0.799,0.111 c 0.172,0.024 0.322,-0.023 0.448,-0.14 0.122,-0.118 0.183,-0.275 0.178,-0.47 l -0.177,-7.36 C 102.398,5.6 102.285,5.066 102.073,4.551 101.86,4.035 101.579,3.572 101.226,3.162 100.871,2.751 100.461,2.408 99.995,2.133 99.527,1.858 99.032,1.684 98.507,1.611 97.982,1.538 97.492,1.576 97.034,1.723 96.578,1.871 96.181,2.102 95.845,2.417 95.508,2.732 95.248,3.119 95.06,3.579 94.87,4.039 94.783,4.545 94.796,5.097 l 0.177,7.361 c 0.005,0.194 0.073,0.369 0.203,0.522 0.132,0.153 0.291,0.242 0.473,0.267 l 0.799,0.111 c 0.172,0.024 0.323,-0.023 0.448,-0.141 0.123,-0.117 0.183,-0.274 0.178,-0.469 M 108.935,5.42 c 0.186,0.026 0.339,-0.021 0.459,-0.139 0.12,-0.118 0.178,-0.269 0.174,-0.453 L 109.547,3.982 C 109.543,3.798 109.477,3.63 109.35,3.477 109.224,3.325 109.067,3.236 108.883,3.21 l -3.739,-0.517 c -0.175,-0.025 -0.326,0.022 -0.451,0.14 -0.126,0.117 -0.186,0.268 -0.181,0.452 l 0.02,0.845 c 0.004,0.184 0.073,0.353 0.205,0.506 0.132,0.153 0.285,0.242 0.46,0.266 l 0.309,0.043 c 0.144,0.02 0.266,0.089 0.367,0.204 0.1,0.117 0.152,0.251 0.156,0.403 l 0.155,6.418 c 0.004,0.152 -0.042,0.272 -0.138,0.361 -0.096,0.09 -0.215,0.125 -0.359,0.104 l -0.309,-0.042 c -0.176,-0.025 -0.325,0.022 -0.451,0.14 -0.126,0.117 -0.186,0.268 -0.181,0.452 l 0.02,0.845 c 0.004,0.184 0.072,0.353 0.204,0.506 0.133,0.153 0.286,0.242 0.461,0.266 l 3.739,0.518 c 0.185,0.026 0.338,-0.021 0.458,-0.139 0.121,-0.119 0.178,-0.269 0.174,-0.453 l -0.021,-0.846 c -0.004,-0.184 -0.07,-0.352 -0.196,-0.505 -0.128,-0.152 -0.283,-0.241 -0.469,-0.267 l -0.294,-0.04 c -0.143,-0.021 -0.268,-0.089 -0.373,-0.206 -0.106,-0.117 -0.16,-0.252 -0.164,-0.404 L 108.13,5.842 c -0.004,-0.151 0.045,-0.271 0.145,-0.36 0.1,-0.088 0.222,-0.122 0.367,-0.103 z M 119.246,5.326 C 119.243,5.142 119.174,4.973 119.042,4.819 118.91,4.666 118.757,4.578 118.581,4.554 l -0.494,-0.069 c -0.216,-0.03 -0.38,-0.012 -0.491,0.054 -0.111,0.065 -0.192,0.138 -0.241,0.217 l -2.642,4.752 c -0.069,0.109 -0.17,0.154 -0.304,0.135 -0.114,-0.016 -0.204,-0.066 -0.273,-0.151 -0.069,-0.085 -0.105,-0.182 -0.107,-0.29 l -0.112,-4.614 c -0.004,-0.184 -0.072,-0.353 -0.205,-0.506 -0.131,-0.154 -0.29,-0.243 -0.476,-0.269 l -0.787,-0.109 c -0.175,-0.024 -0.326,0.023 -0.451,0.14 -0.126,0.118 -0.186,0.268 -0.181,0.452 l 0.254,10.546 c 0.004,0.184 0.072,0.353 0.205,0.506 0.131,0.153 0.285,0.241 0.46,0.266 l 0.525,0.072 c 0.217,0.031 0.378,0.012 0.483,-0.054 0.107,-0.066 0.185,-0.139 0.234,-0.219 l 2.612,-4.723 c 0.069,-0.12 0.175,-0.169 0.319,-0.15 0.113,0.016 0.204,0.066 0.273,0.151 0.069,0.086 0.104,0.182 0.107,0.291 l 0.111,4.598 c 0.004,0.184 0.073,0.352 0.205,0.505 0.132,0.154 0.291,0.244 0.476,0.269 l 0.788,0.109 c 0.175,0.025 0.325,-0.022 0.451,-0.14 0.125,-0.117 0.186,-0.268 0.181,-0.452 z m 7.159,3.242 -2.054,-0.284 c -0.175,-0.025 -0.328,-0.113 -0.461,-0.266 -0.132,-0.153 -0.2,-0.322 -0.205,-0.506 l -0.037,-1.577 c -0.005,-0.184 -0.074,-0.352 -0.205,-0.506 -0.132,-0.153 -0.285,-0.242 -0.461,-0.266 l -0.803,-0.111 c -0.175,-0.024 -0.325,0.022 -0.451,0.14 -0.125,0.118 -0.186,0.268 -0.181,0.452 l 0.254,10.545 c 0.005,0.184 0.073,0.353 0.205,0.506 0.131,0.153 0.286,0.242 0.46,0.266 l 0.804,0.112 c 0.175,0.024 0.325,-0.023 0.451,-0.14 0.125,-0.118 0.186,-0.268 0.181,-0.453 l -0.13,-5.394 c -0.005,-0.184 0.056,-0.335 0.182,-0.453 0.125,-0.117 0.275,-0.164 0.451,-0.14 l 2.054,0.285 c 0.175,0.025 0.328,0.113 0.46,0.266 0.133,0.154 0.201,0.322 0.205,0.506 l 0.131,5.395 c 0.003,0.184 0.072,0.352 0.205,0.506 0.131,0.153 0.284,0.241 0.46,0.266 l 0.803,0.111 c 0.175,0.024 0.325,-0.023 0.451,-0.14 0.125,-0.117 0.185,-0.268 0.181,-0.452 L 129.101,6.69 C 129.097,6.506 129.028,6.338 128.896,6.184 128.764,6.031 128.61,5.943 128.435,5.918 L 127.632,5.807 C 127.457,5.783 127.306,5.83 127.181,5.947 127.056,6.065 126.996,6.215 127,6.4 l 0.038,1.576 c 0.005,0.184 -0.056,0.334 -0.182,0.452 -0.125,0.118 -0.276,0.165 -0.451,0.14 m 8.978,10.312 c 0.534,0.074 1.034,0.038 1.498,-0.108 0.463,-0.147 0.865,-0.38 1.207,-0.7 0.341,-0.32 0.606,-0.712 0.795,-1.177 0.189,-0.465 0.277,-0.979 0.263,-1.542 l -0.098,-4.062 c -0.014,-0.563 -0.127,-1.105 -0.339,-1.626 -0.214,-0.521 -0.499,-0.99 -0.858,-1.406 -0.359,-0.417 -0.776,-0.763 -1.249,-1.04 -0.474,-0.276 -0.979,-0.451 -1.514,-0.525 -0.535,-0.074 -1.035,-0.038 -1.499,0.108 -0.463,0.147 -0.866,0.38 -1.207,0.7 -0.341,0.319 -0.606,0.712 -0.795,1.177 -0.189,0.464 -0.277,0.979 -0.263,1.542 l 0.099,4.062 c 0.013,0.563 0.126,1.105 0.338,1.626 0.213,0.521 0.499,0.989 0.858,1.406 0.359,0.417 0.776,0.763 1.249,1.04 0.474,0.276 0.978,0.451 1.515,0.525 M 137,15.091 c 0.005,0.249 -0.035,0.478 -0.122,0.687 -0.087,0.21 -0.206,0.384 -0.357,0.523 -0.151,0.141 -0.328,0.246 -0.531,0.315 -0.204,0.069 -0.424,0.087 -0.662,0.055 -0.236,-0.034 -0.459,-0.113 -0.667,-0.239 -0.208,-0.126 -0.391,-0.281 -0.551,-0.465 -0.157,-0.181 -0.286,-0.39 -0.384,-0.625 -0.097,-0.235 -0.15,-0.477 -0.156,-0.727 l -0.099,-4.131 c -0.006,-0.25 0.034,-0.479 0.121,-0.688 0.087,-0.209 0.206,-0.382 0.357,-0.523 0.151,-0.141 0.328,-0.246 0.531,-0.315 0.204,-0.069 0.424,-0.088 0.661,-0.054 0.237,0.032 0.46,0.112 0.668,0.238 0.208,0.126 0.392,0.281 0.55,0.465 0.158,0.184 0.287,0.39 0.385,0.626 0.098,0.234 0.149,0.476 0.156,0.725 z"
             style="fill:#cf1e25;fill-opacity:1;fill-rule:nonzero;stroke:none"
             id="path140" />
        </g>
        <g
           id="g142"
           transform="translate(349.7408,251.3767)">
          <path
             d="m 0,0 c 0.163,-0.796 0.197,-1.612 0.327,-2.457 0.459,-2.993 1.236,-4.195 -1.473,-6.726 -0.846,-0.792 -2.13,-1.111 -3.345,-1.345 -0.274,-0.436 -0.568,-0.865 -0.886,-1.28 -3.141,-4.103 -1.494,-2.688 -5.881,-3.3 -0.05,-0.006 -0.091,-0.012 -0.139,-0.016 l -3.846,-0.306 c -7.997,-5.614 -8.102,-0.794 -10.021,-1.1 -1.785,-0.283 -2.971,1.189 -4.569,1.122 -0.825,-0.038 -1.853,6.373 -3.878,5.379 -0.554,-0.273 -1.497,-3.466 -1.507,-3.89 -0.042,-1.674 -1.313,-7.09 -3.272,-8.31 -0.076,-0.046 -0.143,-0.083 -0.226,-0.123 l -0.961,-0.456 c -0.225,-0.108 -0.438,-0.174 -0.685,-0.211 -1.017,-0.155 -3.391,-0.407 -4.212,-0.516 -0.032,-0.005 -0.058,-0.008 -0.087,-0.014 l -9.059,-1.549 c -3.19,-0.524 -7.187,-0.053 -9.275,-0.598 -4.503,-1.175 -4.792,-3.091 -5.786,1.716 -0.785,3.798 0.176,5.79 -7.921,-2.927 -10.166,-3.748 -11.992,-5.079 -14.384,-5.454 -0.668,-0.105 -6.53,0.141 -12.556,0.336 -0.529,0.015 -1.259,4.24 -1.675,3.929 -9.751,-7.289 -6.964,-4.658 -23.505,-7.324 -1.414,-0.228 -1.787,1.187 -2.35,2.439 -1.411,3.133 -6.371,3.112 -7.518,0.021 -2.543,-2.523 -2.991,-3.63 -8.71,-4.978 -0.012,-0.002 -0.022,-0.005 -0.034,-0.008 l -9.529,-2.387 c -0.027,-0.007 -0.05,-0.013 -0.077,-0.021 -5.21,-1.486 -3.801,-1.105 -6.51,2.239 -0.719,0.889 -1.394,1.59 -1.866,1.496 -0.641,-0.128 -0.782,-0.991 -0.804,-2.015 -0.146,-6.747 -4.366,-3.518 -12.117,-2.047 -0.558,-0.189 -1.125,-0.374 -1.708,-0.559 -1.866,-0.592 2.114,0.578 0,0 -0.951,-0.258 -1.943,-0.136 -2.937,0.153 -3.417,-1.229 -7.568,-3.344 -9.881,1.076 -1.035,1.133 -0.648,1.806 -0.443,2.473 -5.963,2.307 -3.289,1.048 -3.974,5.498 -0.056,0.357 -0.285,0.651 -0.674,0.863 -0.391,0.213 -0.833,0.288 -1.306,0.219 -10.668,-1.549 -25.794,-4.59 -35.929,-6.533 -0.52,-0.099 -1.027,-0.018 -1.45,0.233 l -12.987,7.676 c -0.52,0.307 -0.741,0.778 -0.592,1.255 0.15,0.477 0.63,0.823 1.276,0.919 12.711,1.9 47.711,3.902 49.846,5.9 1.267,1.183 0.911,7.25 3.351,11.676 2.413,4.376 0.981,2.906 5.515,3.281 0.05,0.004 0.093,0.006 0.143,0.007 l 2.148,0.038 c 0.033,-4.726 0.143,-9.321 0.356,-13.715 0.041,-0.89 0.258,-1.715 0.612,-2.439 0.37,-0.761 0.894,-1.417 1.527,-1.933 0.631,-0.513 1.375,-0.891 2.193,-1.106 0.775,-0.199 1.62,-0.247 2.497,-0.117 4.681,0.692 8.314,1.27 11.752,1.815 l 7.183,1.13 c 2.346,0.363 4.842,0.738 7.682,1.148 0.854,0.123 1.669,0.407 2.41,0.817 0.766,0.422 1.457,0.979 2.027,1.629 0.578,0.654 1.047,1.405 1.372,2.21 0.314,0.781 0.499,1.629 0.52,2.502 l 0.104,4.215 c 0.318,-0.517 0.625,-0.996 0.923,-1.435 l 2.065,-3.014 c 0.743,-1.068 1.413,-2.015 2.01,-2.844 0.71,-0.987 1.353,-1.861 1.923,-2.624 0.612,-0.816 1.162,-1.529 1.639,-2.132 l 0.582,-0.733 0.087,0.075 c 0.558,-0.442 1.224,-0.728 1.94,-0.843 0.972,-0.154 2.033,0.016 3.017,0.553 l 1.002,0.524 c 4.511,2.251 8.548,4.379 12.525,6.546 0.553,0.302 4.505,2.636 4.723,2.443 0.332,-0.289 0.686,-0.536 1.058,-0.736 0.378,-0.203 0.777,-0.365 1.19,-0.48 0.415,-0.116 0.848,-0.188 1.289,-0.211 0.431,-0.023 0.872,-0.001 1.311,0.063 2.358,0.297 4.785,0.728 7.144,1.087 l 5.83,0.917 6.023,0.979 6.924,1.167 8.759,1.511 9.466,1.663 9.426,1.685 c 1.81,0.33 3.654,0.64 5.482,0.973 l 0.322,-0.266 0.053,0.058 c 0.45,-0.27 0.939,-0.479 1.456,-0.62 0.766,-0.208 1.602,-0.265 2.472,-0.147 l 31.92,4.206 c 0.76,0.103 1.486,0.332 2.155,0.66 0.687,0.338 1.323,0.788 1.878,1.317 l 0.429,0.427 c 0.575,0.64 1.046,1.388 1.378,2.198 0.32,0.784 0.511,1.633 0.54,2.509 0.139,4.398 0.28,8.592 0.416,12.579 2.996,-0.698 7.781,-0.936 8.628,-3.15 L 0.462,13.403 C 0.459,13.311 0.455,13.216 0.444,13.119 0.309,11.883 -0.178,10.58 -0.243,9.344 -0.258,9.026 -0.098,8.774 0.232,8.604 0.31,8.566 0.39,8.532 0.476,8.507 l 40.401,2.816 c 0.177,0.013 0.33,0.005 0.505,-0.022 C 49.4,10.013 41.197,8.412 38.185,7.911 L 2.326,1.568 2.429,0.908 C 1.349,0.657 0.513,0.422 -0.019,0.207 -0.02,0.138 -0.013,0.069 0,0"
             style="fill:#eeb20e;fill-opacity:1;fill-rule:evenodd;stroke:none"
             id="path144" />
        </g>
        <g
           id="g146"
           transform="translate(225.0573,352.6084)">
          <path
             d="m 0,0 c 0.793,0.797 0.01,2.56 -1.106,2.947 -0.693,0.24 -1.261,0.214 -1.946,-0.184 -0.521,-0.305 -0.92,-0.924 -0.957,-1.519 0.028,-0.785 0.399,-1.995 1.228,-2.343 0.472,-0.198 0.967,-0.212 1.594,-0.104 2.057,-3.668 3.638,-7.392 4.427,-11.908 l 0.619,-2.626 c 3.561,1.568 7.604,2.544 11.399,3.652 3.893,1.139 8.278,2.372 12.212,3.243 l 0.339,0.097 -0.339,-0.097 C 26.595,-9.814 18.491,-13.646 16.671,-14.516 13.11,-16.218 8.445,-18.19 4.706,-19.375 l 1.296,-5.495 c 2.75,0.911 5.422,1.91 8.264,2.796 2.834,0.882 5.687,1.698 8.594,2.528 12.746,3.639 23.481,6.011 36.438,8.571 2.488,0.491 16.089,2.966 17.474,2.62 l -2.197,9.34 c -0.378,1.224 -0.695,2.66 -1.043,3.923 -0.366,1.322 -0.628,2.662 -0.816,4.018 -0.311,2.253 -0.478,5.027 -0.234,7.159 l 0.074,0.322 c -0.653,-0.034 -0.446,0.155 -1.092,-0.041 l 0.012,0.018 c 0.223,-0.066 0.142,0.09 0.302,-0.406 l 0.231,-3.217 c -0.004,-1.194 -0.03,-2.369 -0.184,-3.5 -0.233,-1.71 -0.932,-5.865 -3.262,-3.039 -1.864,2.259 -3.755,9.37 -4.668,12.722 -0.268,0.983 -0.673,1.748 -0.203,1.857 0.62,0.142 0.996,0.279 1.367,0.675 -0.552,0.007 -2.51,-1.156 -3.283,0.246 -0.217,-0.254 -0.584,0.122 -0.07,-0.307 0.272,-0.411 0.255,-0.158 0.632,-0.544 C 61.755,18.025 58.247,8.481 56.822,6.077 55.762,4.287 53.928,3.431 51.819,3.665 50.534,3.808 49.354,4.374 48.51,4.817 47.548,5.323 46.486,6.344 45.731,6.841 45.158,7.43 44.586,7.896 43.999,8.507 c -2.026,2.112 -2.989,3.348 -4.849,5.658 -1.029,1.279 -2.067,2.697 -3.038,4.081 -0.717,1.02 -2.443,3.19 -2.867,4.191 1.172,0.967 1.58,1.025 2.153,2.271 1.019,2.213 0.238,4.732 -1.695,6.128 -1.704,1.23 -4.367,0.89 -5.868,-0.514 -2.223,-2.082 -1.863,-5.715 0.38,-7.35 1.142,-0.831 1.361,-0.676 2.871,-1.041 0.083,-0.993 -0.679,-5.094 -0.894,-6.26 C 29.35,11.127 28.311,5.15 26.201,1.132 24.904,-1.337 22.599,-4.673 19.053,-3.967 16.644,-3.488 11.885,1.371 9.913,3.248 8.566,4.531 7.083,6.037 5.845,7.447 L 5.796,7.599 c 0.929,0.696 1.196,2.454 0.311,3.647 -0.682,0.92 -2.179,1.597 -3.659,0.678 C 1.475,11.321 0.805,9.853 1.469,8.419 2.337,6.537 4.269,6.892 4.617,6.798 5.502,3.187 6.974,-5.216 6.305,-8.401 5.657,-11.483 3.007,-7.538 2.214,-6.187 1.617,-5.169 1.121,-4.197 0.613,-3.103 -1.029,0.44 -0.06,-1.081 0,0 m 6.002,-24.87 0.652,-2.736 c 5.284,0.572 15.848,1.385 36.978,6.261 6.848,1.457 30.068,8.127 33.287,10.392 0.373,-0.063 0.181,0.108 0.244,-0.185 0.279,0.295 0.201,-0.047 0.107,0.623 -0.021,0.147 -0.142,0.557 -0.185,0.729 -0.118,0.475 -0.234,0.952 -0.313,1.431 -1.385,0.346 -14.986,-2.129 -17.474,-2.62 -12.957,-2.56 -23.692,-4.932 -36.438,-8.571 -2.907,-0.83 -5.76,-1.646 -8.594,-2.528 -2.842,-0.886 -5.514,-1.885 -8.264,-2.796 m 0.652,-2.736 c 1.285,2.686 66.44,18.04 70.509,16.468 -0.063,0.293 0.129,0.122 -0.244,0.185 -5.695,-0.455 -11.35,-1.816 -16.963,-2.855 -6.066,-1.39 -12.185,-2.593 -18.273,-4.007 -4.961,-1.152 -32.876,-8.045 -35.029,-9.791 m -2.795,11.869 0.847,-3.638 c 3.739,1.185 8.404,3.157 11.965,4.859 1.82,0.87 9.924,4.702 10.799,5.674 -3.934,-0.871 -8.319,-2.104 -12.212,-3.243 -3.795,-1.108 -7.838,-2.084 -11.399,-3.652"
             style="fill:#eeb20e;fill-opacity:1;fill-rule:evenodd;stroke:none"
             id="path148" />
        </g>
        <g
           id="g150"
           transform="translate(286.7622,374.0234)">
          <path
             d="M 0,0 C -0.512,0.429 -0.146,0.052 0.07,0.307 0.844,-1.096 2.802,0.068 3.355,0.06 5.111,1.256 4.336,4.806 1.657,4.892 -1.783,5.002 -1.717,0.329 0,0"
             style="fill:#eeb20e;fill-opacity:1;fill-rule:evenodd;stroke:none"
             id="path152" />
        </g>
        <g
           id="g154"
           transform="translate(296.5208,368.9733)">
          <path
             d="M 0,0 C 0.647,0.197 0.439,0.008 1.093,0.042 L 1.019,-0.28 c 1.858,0.62 1.59,0.788 2.092,2.214 L 2.879,2.92 C 2.35,3.548 2.278,3.87 1.473,4.088 0.699,4.297 -0.044,4.09 -0.666,3.534 -1.658,2.644 -1.439,0.457 0,0"
             style="fill:#eeb20e;fill-opacity:1;fill-rule:evenodd;stroke:none"
             id="path156" />
        </g>
        <g
           id="g158"
           transform="translate(225.0573,352.6084)">
          <path
             d="m 0,0 c 0.793,0.797 0.01,2.56 -1.106,2.947 -0.693,0.24 -1.261,0.214 -1.946,-0.184 -0.521,-0.305 -0.92,-0.924 -0.957,-1.519 0.028,-0.785 0.399,-1.995 1.228,-2.343 0.472,-0.198 0.967,-0.212 1.594,-0.104 2.057,-3.668 3.638,-7.392 4.427,-11.908 l 0.619,-2.626 c 3.561,1.568 7.604,2.544 11.399,3.652 3.893,1.139 8.278,2.372 12.212,3.243 l 0.339,0.097 -0.339,-0.097 C 26.595,-9.814 18.491,-13.646 16.671,-14.516 13.11,-16.218 8.445,-18.19 4.706,-19.375 l 1.296,-5.495 c 2.75,0.911 5.422,1.91 8.264,2.796 2.834,0.882 5.687,1.698 8.594,2.528 12.746,3.639 23.481,6.011 36.438,8.571 2.488,0.491 16.089,2.966 17.474,2.62 l -2.197,9.34 c -0.378,1.224 -0.695,2.66 -1.043,3.923 -0.366,1.322 -0.628,2.662 -0.816,4.018 -0.311,2.253 -0.478,5.027 -0.234,7.159 l 0.074,0.322 c -0.653,-0.034 -0.446,0.155 -1.092,-0.041 l 0.012,0.018 c 0.223,-0.066 0.142,0.09 0.302,-0.406 l 0.231,-3.217 c -0.004,-1.194 -0.03,-2.369 -0.184,-3.5 -0.233,-1.71 -0.932,-5.865 -3.262,-3.039 -1.864,2.259 -3.755,9.37 -4.668,12.722 -0.268,0.983 -0.673,1.748 -0.203,1.857 0.62,0.142 0.996,0.279 1.367,0.675 -0.552,0.007 -2.51,-1.156 -3.283,0.246 -0.217,-0.254 -0.584,0.122 -0.07,-0.307 0.272,-0.411 0.255,-0.158 0.632,-0.544 C 61.755,18.025 58.247,8.481 56.822,6.077 55.762,4.287 53.928,3.431 51.819,3.665 50.534,3.808 49.354,4.374 48.51,4.817 47.548,5.323 46.486,6.344 45.731,6.841 45.158,7.43 44.586,7.896 43.999,8.507 c -2.026,2.112 -2.989,3.348 -4.849,5.658 -1.029,1.279 -2.067,2.697 -3.038,4.081 -0.717,1.02 -2.443,3.19 -2.867,4.191 1.172,0.967 1.58,1.025 2.153,2.271 1.019,2.213 0.238,4.732 -1.695,6.128 -1.704,1.23 -4.367,0.89 -5.868,-0.514 -2.223,-2.082 -1.863,-5.715 0.38,-7.35 1.142,-0.831 1.361,-0.676 2.871,-1.041 0.083,-0.993 -0.679,-5.094 -0.894,-6.26 C 29.35,11.127 28.311,5.15 26.201,1.132 24.904,-1.337 22.599,-4.673 19.053,-3.967 16.644,-3.488 11.885,1.371 9.913,3.248 8.566,4.531 7.083,6.037 5.845,7.447 L 5.796,7.599 c 0.929,0.696 1.196,2.454 0.311,3.647 -0.682,0.92 -2.179,1.597 -3.659,0.678 C 1.475,11.321 0.805,9.853 1.469,8.419 2.337,6.537 4.269,6.892 4.617,6.798 5.502,3.187 6.974,-5.216 6.305,-8.401 5.657,-11.483 3.007,-7.538 2.214,-6.187 1.617,-5.169 1.121,-4.197 0.613,-3.103 -1.029,0.44 -0.06,-1.081 0,0 Z m 6.002,-24.87 0.652,-2.736 c 5.284,0.572 15.848,1.385 36.978,6.261 6.848,1.457 30.068,8.127 33.287,10.392 0.373,-0.063 0.181,0.108 0.244,-0.185 0.279,0.295 0.201,-0.047 0.107,0.623 -0.021,0.147 -0.142,0.557 -0.185,0.729 -0.118,0.475 -0.234,0.952 -0.313,1.431 -1.385,0.346 -14.986,-2.129 -17.474,-2.62 -12.957,-2.56 -23.692,-4.932 -36.438,-8.571 -2.907,-0.83 -5.76,-1.646 -8.594,-2.528 -2.842,-0.886 -5.514,-1.885 -8.264,-2.796 z m 0.652,-2.736 c 1.285,2.686 66.44,18.04 70.509,16.468 -0.063,0.293 0.129,0.122 -0.244,0.185 -5.695,-0.455 -11.35,-1.816 -16.963,-2.855 -6.066,-1.39 -12.185,-2.593 -18.273,-4.007 -4.961,-1.152 -32.876,-8.045 -35.029,-9.791 z m -2.795,11.869 0.847,-3.638 c 3.739,1.185 8.404,3.157 11.965,4.859 1.82,0.87 9.924,4.702 10.799,5.674 -3.934,-0.871 -8.319,-2.104 -12.212,-3.243 -3.795,-1.108 -7.838,-2.084 -11.399,-3.652 z"
             style="fill:none;stroke:#eeb20e;stroke-width:0.525;stroke-linecap:butt;stroke-linejoin:round;stroke-miterlimit:22.926;stroke-dasharray:none;stroke-opacity:1"
             id="path160" />
        </g>
        <g
           id="g162"
           transform="translate(286.7622,374.0234)">
          <path
             d="M 0,0 C -0.512,0.429 -0.146,0.052 0.07,0.307 0.844,-1.096 2.802,0.068 3.355,0.06 5.111,1.256 4.336,4.806 1.657,4.892 -1.783,5.002 -1.717,0.329 0,0 Z"
             style="fill:none;stroke:#eeb20e;stroke-width:0.525;stroke-linecap:butt;stroke-linejoin:miter;stroke-miterlimit:22.926;stroke-dasharray:none;stroke-opacity:1"
             id="path164" />
        </g>
        <g
           id="g166"
           transform="translate(296.5208,368.9733)">
          <path
             d="M 0,0 C 0.647,0.197 0.439,0.008 1.093,0.042 L 1.019,-0.28 c 1.858,0.62 1.59,0.788 2.092,2.214 L 2.879,2.92 C 2.35,3.548 2.278,3.87 1.473,4.088 0.699,4.297 -0.044,4.09 -0.666,3.534 -1.658,2.644 -1.439,0.457 0,0 Z"
             style="fill:none;stroke:#eeb20e;stroke-width:0.525;stroke-linecap:butt;stroke-linejoin:miter;stroke-miterlimit:22.926;stroke-dasharray:none;stroke-opacity:1"
             id="path168" />
        </g>
        <g
           id="g170"
           transform="translate(296.5331,368.9928)">
          <path
             d="m 0,0 c 0.338,-1.92 0.265,-5.153 0.09,-6.964 -0.18,-1.855 -0.947,-5.664 -2.902,-2.698 -1.641,2.489 -4.509,10.848 -4.972,14.078 -0.47,-0.108 -0.065,-0.874 0.202,-1.856 0.914,-3.352 2.805,-10.463 4.669,-12.723 2.33,-2.825 3.029,1.329 3.262,3.039 0.154,1.132 0.18,2.307 0.184,3.5 L 0.302,-0.407 C 0.142,0.089 0.223,-0.067 0,0"
             style="fill:#eeb20e;fill-opacity:1;fill-rule:evenodd;stroke:none"
             id="path172" />
        </g>
        <g
           id="g174"
           transform="translate(296.5331,368.9928)">
          <path
             d="m 0,0 c 0.338,-1.92 0.265,-5.153 0.09,-6.964 -0.18,-1.855 -0.947,-5.664 -2.902,-2.698 -1.641,2.489 -4.509,10.848 -4.972,14.078 -0.47,-0.108 -0.065,-0.874 0.202,-1.856 0.914,-3.352 2.805,-10.463 4.669,-12.723 2.33,-2.825 3.029,1.329 3.262,3.039 0.154,1.132 0.18,2.307 0.184,3.5 L 0.302,-0.407 C 0.142,0.089 0.223,-0.067 0,0 Z"
             style="fill:none;stroke:#eeb20e;stroke-width:0.525;stroke-linecap:butt;stroke-linejoin:miter;stroke-miterlimit:22.926;stroke-dasharray:none;stroke-opacity:1"
             id="path176" />
        </g>
      </g>
    </g>
  </g>
</svg>
