<svg width="26" height="25" viewBox="0 0 26 25" fill="none" xmlns="http://www.w3.org/2000/svg">
<path d="M21.8715 1.5625H4.68402C4.06242 1.5625 3.46628 1.80943 3.02674 2.24897C2.5872 2.68851 2.34027 3.28465 2.34027 3.90625L2.34027 21.0938C2.34027 21.7154 2.5872 22.3115 3.02674 22.751C3.46628 23.1906 4.06242 23.4375 4.68402 23.4375H11.3857V16.0005H8.30951V12.5H11.3857V9.83203C11.3857 6.79736 13.1923 5.12109 15.9594 5.12109C17.2846 5.12109 18.6703 5.35742 18.6703 5.35742V8.33594H17.1435C15.6391 8.33594 15.1699 9.26953 15.1699 10.2271V12.5H18.5283L17.9911 16.0005H15.1699V23.4375H21.8715C22.4931 23.4375 23.0893 23.1906 23.5288 22.751C23.9683 22.3115 24.2153 21.7154 24.2153 21.0938V3.90625C24.2153 3.28465 23.9683 2.68851 23.5288 2.24897C23.0893 1.80943 22.4931 1.5625 21.8715 1.5625Z" fill="#212121"/>
</svg>
