<svg width="23" height="33" viewBox="0 0 23 33" fill="none" xmlns="http://www.w3.org/2000/svg">
<path d="M11.8571 20.7142C13.6323 20.7142 15.0714 19.2751 15.0714 17.4999C15.0714 15.7247 13.6323 14.2856 11.8571 14.2856C10.0819 14.2856 8.64285 15.7247 8.64285 17.4999C8.64285 19.2751 10.0819 20.7142 11.8571 20.7142Z" stroke="#CA1517" stroke-width="2" stroke-linecap="round" stroke-linejoin="round"/>
<path d="M21.1429 17.5C21.1429 25 11.5 31.4286 11.5 31.4286C11.5 31.4286 1.85715 25 1.85715 17.5C1.85715 14.9426 2.87309 12.4899 4.68148 10.6815C6.48986 8.87312 8.94256 7.85718 11.5 7.85718C14.0575 7.85718 16.5101 8.87312 18.3185 10.6815C20.1269 12.4899 21.1429 14.9426 21.1429 17.5Z" stroke="#CA1517" stroke-width="2" stroke-linecap="round" stroke-linejoin="round"/>
</svg>
