<svg width="21" height="21" viewBox="0 0 21 21" fill="none" xmlns="http://www.w3.org/2000/svg">
<path d="M18.8333 14.5284V17.0284C18.8343 17.2605 18.7867 17.4902 18.6937 17.7028C18.6008 17.9155 18.4644 18.1064 18.2934 18.2633C18.1224 18.4202 17.9205 18.5396 17.7006 18.614C17.4808 18.6883 17.2478 18.7159 17.0167 18.6951C14.4523 18.4164 11.9892 17.5402 9.82498 16.1367C7.81151 14.8573 6.10443 13.1502 4.82499 11.1367C3.41663 8.96272 2.54019 6.48755 2.26665 3.91172C2.24583 3.68127 2.27321 3.44902 2.34707 3.22974C2.42092 3.01046 2.53963 2.80896 2.69562 2.63807C2.85162 2.46718 3.04149 2.33064 3.25314 2.23715C3.4648 2.14366 3.6936 2.09527 3.92499 2.09505H6.42499C6.82941 2.09107 7.22148 2.23428 7.52812 2.498C7.83476 2.76171 8.03505 3.12792 8.09165 3.52838C8.19717 4.32844 8.39286 5.11399 8.67499 5.87005C8.7871 6.16832 8.81137 6.49248 8.74491 6.80412C8.67844 7.11576 8.52404 7.40181 8.29998 7.62838L7.24165 8.68672C8.42795 10.773 10.1554 12.5004 12.2417 13.6867L13.3 12.6284C13.5266 12.4043 13.8126 12.2499 14.1243 12.1835C14.4359 12.117 14.76 12.1413 15.0583 12.2534C15.8144 12.5355 16.5999 12.7312 17.4 12.8367C17.8048 12.8938 18.1745 13.0977 18.4388 13.4096C18.703 13.7215 18.8435 14.1197 18.8333 14.5284Z" stroke="#CA1517" stroke-width="2" stroke-linecap="round" stroke-linejoin="round"/>
</svg>
